# 3ds Max Wavefront OBJ Exporter v0.99 - (c)2007 guruware
# File Created: 05.03.2025 04:58:25

mtllib Arbol1.mtl

#
# object Tronco
#

v  1.1372 17.8125 -6.5068
v  -1.1320 6.5625 -4.1928
v  -3.4960 5.6250 -2.5404
v  -0.0637 21.5625 2.6104
v  -2.3707 7.5000 0.1386
v  1.1090 0.0000 2.5719
v  3.1746 30.0000 1.5663
v  4.4532 16.8750 -0.0048
v  5.0098 25.3125 0.3165
v  -2.7829 28.1250 -4.1826
v  -2.2086 30.0000 -1.9144
v  1.1364 30.0000 -5.0820
v  -2.3220 3.7500 1.1690
v  -3.6461 0.0000 -3.2580
v  5.0194 17.8125 -2.4347
v  3.9631 11.3906 -6.2427
v  1.7088 26.2500 -6.3076
v  -3.4910 17.8125 -3.8471
v  -3.1372 15.9375 -0.6544
v  4.2530 4.6875 -1.0874
v  3.7850 0.0000 1.5639
v  6.6017 7.5000 -3.4071
v  2.8742 7.5000 2.3002
v  5.2783 0.0000 -5.0292
v  4.6638 6.6838 -6.2764
v  4.9463 30.0000 -3.5243
v  0.6491 30.0000 1.9252
v  0.0523 0.0000 -6.1005
v  0.5163 5.6250 -6.7017
v  -3.6557 22.9025 -1.9194
# 30 vertices

vn 0.0643 0.0233 -0.9977
vn -0.6155 0.0850 -0.7835
vn -0.9655 0.0521 -0.2551
vn -0.3531 0.0830 0.9319
vn -0.8061 0.0380 0.5905
vn -0.0200 -0.0282 0.9994
vn 0.5668 0.1598 0.8082
vn 0.8905 0.0066 0.4550
vn 0.9202 0.0102 0.3913
vn -0.7591 0.3884 -0.5225
vn -0.8649 0.4674 0.1830
vn -0.0608 0.4735 -0.8787
vn -0.6403 0.0011 0.7681
vn -0.9575 -0.0521 -0.2836
vn 0.9635 0.1222 -0.2382
vn 0.3861 0.1442 -0.9111
vn 0.2517 0.1160 -0.9608
vn -0.8741 -0.0591 -0.4821
vn -0.9162 -0.0312 0.3996
vn 0.6354 0.2085 0.7435
vn 0.5715 0.3451 0.7445
vn 0.9996 0.0206 0.0209
vn 0.5994 -0.0625 0.7980
vn 0.8002 -0.2553 -0.5426
vn 0.5153 -0.0078 -0.8570
vn 0.9092 -0.0441 -0.4140
vn -0.3526 0.1359 0.9259
vn -0.3266 -0.0279 -0.9448
vn -0.4269 0.1254 -0.8956
vn -0.9626 0.0963 0.2531
# 30 vertex normals

o Tronco
g Tronco
usemtl Tronco
s 1
f 1//1 2//2 3//3 
f 4//4 5//5 6//6 
f 7//7 8//8 9//9 
f 10//10 11//11 12//12 
s 2
f 13//13 14//14 6//6 
f 15//15 9//9 8//8 
s 4
f 16//16 1//1 15//15 
s 8
f 15//15 17//17 9//9 
s 2
f 10//10 12//12 17//17 
f 3//3 18//18 1//1 
f 5//5 4//4 19//19 
s 1
f 20//20 21//21 22//22 
s 4
f 4//4 6//6 23//23 
s 8
f 1//1 16//16 2//2 
s 2
f 22//22 21//21 24//24 
s 16
f 16//16 22//22 25//25 
s 4
f 26//26 17//17 12//12 
s 8
f 23//23 7//7 4//4 
s 16
f 27//27 19//19 4//4 
s 1
f 28//28 29//29 25//25 
s 2
f 29//29 28//28 2//2 
s 4
f 5//5 19//19 18//18 
f 30//30 11//11 10//10 
s 16
f 7//7 23//23 8//8 
s 4
f 22//22 8//8 20//20 
s 8
f 5//5 13//13 6//6 
s 4
f 3//3 14//14 13//13 
s 32
f 27//27 4//4 7//7 
f 15//15 22//22 16//16 
s 64
f 22//22 15//15 8//8 
f 7//7 9//9 26//26 
s 16
f 9//9 17//17 26//26 
f 14//14 3//3 2//2 
s 32
f 2//2 28//28 14//14 
s 16
f 21//21 20//20 6//6 
s 32
f 1//1 10//10 17//17 
s 128
f 17//17 15//15 1//1 
s 8
f 10//10 18//18 30//30 
s 16
f 10//10 1//1 18//18 
s 2
f 11//11 30//30 27//27 
s 32
f 23//23 6//6 20//20 
s 128
f 8//8 23//23 20//20 
s 32
f 18//18 3//3 5//5 
s 64
f 5//5 3//3 13//13 
s 4
f 25//25 24//24 28//28 
s 8
f 24//24 25//25 22//22 
s 1
f 19//19 27//27 30//30 
s 64
f 19//19 30//30 18//18 
f 29//29 2//2 16//16 
s 128
f 29//29 16//16 25//25 
# 0 polygons - 50 triangles

#
# object Copa
#

v  4.3440 43.9692 -14.0509
v  10.4547 41.4236 -13.3932
v  9.2353 32.0497 -16.6655
v  -1.7926 34.7707 11.2723
v  3.7941 31.9747 11.2777
v  6.3391 45.1065 5.1809
v  15.6643 34.7142 -4.2778
v  -1.3184 26.8904 8.8455
v  -7.2556 32.0388 7.5537
v  -8.1565 25.9389 1.2436
v  6.3166 25.4513 0.3640
v  2.0655 25.3967 -13.5954
v  9.1154 28.0492 -14.4930
v  -9.6658 36.1665 -12.3687
v  -11.0478 45.7375 -0.4352
v  -7.2484 48.0343 -1.6496
v  -5.9649 44.9062 -10.6565
v  -12.3939 32.1866 -4.1522
v  14.4101 37.4953 2.4899
v  14.5958 30.7760 -0.1325
v  5.0343 49.7474 -1.4807
v  8.3146 45.0919 -11.7590
v  -5.4532 46.9878 3.6257
v  -6.8487 42.0517 7.0360
v  2.2788 28.4946 10.0612
v  -3.8368 23.9717 -2.8268
v  -5.8947 41.9094 -14.3956
v  -9.9024 26.4103 -4.9944
# 28 vertices

vn 0.0464 0.6202 -0.7831
vn 0.6882 0.4188 -0.5924
vn 0.4288 -0.1290 -0.8941
vn -0.2046 0.1103 0.9726
vn 0.3349 -0.1216 0.9344
vn 0.3885 0.6224 0.6795
vn 0.9877 0.0352 -0.1524
vn -0.1059 -0.7712 0.6277
vn -0.7220 -0.2064 0.6604
vn -0.6182 -0.7120 0.3329
vn 0.3428 -0.9192 0.1939
vn -0.0792 -0.7712 -0.6316
vn 0.5268 -0.6610 -0.5344
vn -0.7284 -0.0568 -0.6828
vn -0.8426 0.5218 0.1333
vn -0.3543 0.9331 -0.0623
vn -0.4244 0.7698 -0.4767
vn -0.9873 -0.1581 -0.0162
vn 0.8606 0.2551 0.4408
vn 0.8215 -0.5135 0.2479
vn 0.3207 0.9450 0.0642
vn 0.5278 0.7569 -0.3854
vn -0.2384 0.7747 0.5856
vn -0.4678 0.3808 0.7976
vn 0.1838 -0.6283 0.7560
vn -0.1197 -0.9927 0.0147
vn -0.4343 0.3705 -0.8210
vn -0.7010 -0.6771 -0.2239
# 28 vertex normals

o Copa
g Copa
usemtl Hojas
s 1
f 31//31 32//32 33//33 
f 34//34 35//35 36//36 
s 2
f 37//37 33//33 32//32 
s 1
f 38//38 39//39 40//40 
f 41//41 42//42 43//43 
s 4
f 44//44 33//33 42//42 
s 1
f 45//45 46//46 47//47 
s 2
f 45//45 44//44 48//48 
f 49//49 36//36 35//35 
f 43//43 50//50 41//41 
s 4
f 51//51 32//32 52//52 
s 2
f 51//51 52//52 31//31 
s 4
f 53//53 45//45 54//54 
s 8
f 39//39 45//45 48//48 
s 4
f 55//55 41//41 50//50 
s 2
f 56//56 38//38 40//40 
s 16
f 46//46 45//45 53//53 
s 8
f 49//49 51//51 36//36 
s 32
f 45//45 57//57 44//44 
s 8
f 33//33 44//44 57//57 
s 4
f 39//39 38//38 34//34 
s 16
f 58//58 44//44 42//42 
s 8
f 42//42 56//56 58//58 
s 16
f 50//50 49//49 35//35 
s 1
f 44//44 58//58 48//48 
s 16
f 39//39 48//48 40//40 
f 55//55 56//56 41//41 
s 32
f 42//42 41//41 56//56 
s 64
f 43//43 42//42 33//33 
s 16
f 43//43 33//33 37//37 
s 128
f 33//33 57//57 31//31 
s 16
f 47//47 51//51 31//31 
s 8
f 35//35 34//34 38//38 
s 32
f 55//55 50//50 35//35 
f 53//53 36//36 51//51 
s 64
f 34//34 36//36 53//53 
s 4
f 40//40 58//58 56//56 
s 32
f 58//58 40//40 48//48 
s 64
f 45//45 39//39 54//54 
s 4
f 47//47 31//31 57//57 
s 256
f 45//45 47//47 57//57 
s 64
f 56//56 55//55 38//38 
s 128
f 38//38 55//55 35//35 
s 64
f 46//46 51//51 47//47 
s 128
f 53//53 51//51 46//46 
s 2
f 34//34 54//54 39//39 
s 256
f 54//54 34//34 53//53 
s 8
f 32//32 31//31 52//52 
f 43//43 37//37 50//50 
s 1
f 37//37 49//49 50//50 
s 32
f 49//49 37//37 32//32 
s 256
f 32//32 51//51 49//49 
# 0 polygons - 52 triangles

